<?xml version="1.0" standalone="no"?>
<!DOCTYPE svg PUBLIC "-//W3C//DTD SVG 20010904//EN"
 "http://www.w3.org/TR/2001/REC-SVG-20010904/DTD/svg10.dtd">
<svg version="1.0" xmlns="http://www.w3.org/2000/svg"
 width="512.000000pt" height="512.000000pt" viewBox="0 0 512.000000 512.000000"
 preserveAspectRatio="xMidYMid meet">
<metadata>
Created by potrace 1.11, written by Peter Selinger 2001-2013
</metadata>
<g transform="translate(0.000000,512.000000) scale(0.100000,-0.100000)"
fill="#000000" stroke="none">
<path d="M2379 5116 c-2 -2 -40 -6 -83 -10 -44 -4 -82 -9 -85 -11 -4 -2 -34
-7 -66 -10 -109 -13 -458 -107 -500 -134 -5 -4 -28 -13 -50 -20 -65 -22 -282
-133 -385 -196 -348 -216 -674 -552 -867 -895 -67 -120 -84 -153 -127 -252
-145 -334 -206 -619 -210 -988 -6 -442 75 -800 269 -1192 35 -69 72 -139 83
-155 10 -15 39 -59 63 -98 81 -128 201 -275 339 -414 281 -283 655 -506 1055
-630 126 -39 250 -65 430 -91 100 -15 456 -21 550 -9 39 5 93 11 120 15 28 3
95 15 150 26 55 11 111 22 125 25 38 7 316 101 369 124 689 309 1178 834 1421
1524 38 108 96 342 106 422 3 32 8 60 9 63 18 30 27 458 13 600 -68 680 -406
1308 -933 1735 -370 299 -788 481 -1265 550 -98 15 -520 31 -531 21z m461
-240 c19 -4 64 -11 100 -17 36 -5 113 -21 173 -35 123 -30 118 -21 92 -147 -8
-40 -16 -83 -19 -97 -23 -135 -28 -150 -55 -156 -82 -18 -133 -37 -193 -74
-37 -22 -69 -40 -73 -40 -3 0 -51 36 -108 80 -56 44 -113 88 -127 98 -48 36
-265 179 -330 217 -36 21 -76 45 -90 54 -14 9 -51 30 -82 46 -31 16 -55 31
-54 32 6 7 156 32 222 38 38 4 71 8 73 11 6 6 431 -3 471 -10z m-946 -206
c286 -148 566 -331 824 -537 13 -11 13 -19 -2 -75 -9 -35 -18 -91 -19 -125 -2
-34 -5 -64 -8 -67 -3 -3 -52 -22 -110 -42 -140 -49 -287 -113 -440 -189 -113
-56 -151 -77 -224 -122 -159 -97 -156 -95 -173 -80 -48 42 -163 77 -252 77
-114 -1 -219 -38 -300 -107 l-39 -34 -123 82 c-183 123 -439 310 -445 325 -12
32 172 270 331 430 163 162 325 286 509 389 94 52 298 145 319 145 9 0 78 -31
152 -70z m1705 -25 c148 -75 296 -170 421 -269 83 -67 268 -245 302 -290 l17
-23 -217 0 c-119 1 -263 -1 -320 -4 l-103 -4 -22 55 c-46 112 -134 207 -244
265 -29 15 -51 30 -48 34 2 4 6 21 9 37 36 198 51 264 63 264 7 0 71 -29 142
-65z m846 -820 c44 -3 80 -7 80 -8 1 -1 20 -33 42 -72 116 -200 198 -398 252
-611 20 -80 22 -89 40 -192 5 -31 13 -73 16 -92 9 -48 17 -443 10 -461 -4 -12
-26 -14 -108 -13 -56 1 -156 3 -223 4 -67 1 -125 5 -131 9 -5 3 -19 27 -32 53
-73 153 -229 257 -393 261 l-67 2 -30 91 c-73 227 -183 469 -296 656 l-55 90
41 46 c40 47 95 148 104 192 7 38 20 43 107 47 46 3 87 6 93 7 19 5 471 -2
550 -9z m-1556 -488 c-34 -120 -74 -251 -196 -637 -9 -30 -18 -56 -19 -58 -7
-12 -386 126 -602 221 l-143 62 6 42 c11 77 7 159 -12 215 l-19 56 115 70
c197 119 410 219 640 301 l104 38 83 -84 82 -83 -39 -143z m-2314 152 c90 -66
405 -284 441 -305 17 -10 19 -21 15 -95 -3 -85 7 -144 36 -211 l16 -37 -58
-62 c-114 -124 -236 -280 -416 -532 l-27 -38 -123 103 c-68 56 -144 121 -168
143 -24 22 -48 39 -53 37 -10 -3 -6 236 6 343 25 216 119 547 202 707 17 33 9
36 129 -53z m2826 -143 c105 -169 254 -505 301 -679 l11 -44 -47 -43 c-26 -24
-59 -63 -73 -87 -22 -38 -29 -43 -52 -39 -14 3 -60 10 -101 16 -109 15 -142
20 -170 26 -14 3 -36 8 -50 10 -14 3 -79 16 -145 31 -66 14 -132 28 -147 30
-16 3 -28 11 -28 18 0 7 16 61 36 121 48 146 128 409 173 569 l37 130 81 5
c45 3 84 8 88 11 17 18 42 -3 86 -75z m-1470 -671 c197 -90 385 -162 657 -250
9 -3 5 -22 -14 -72 -14 -37 -37 -102 -51 -143 -27 -79 -203 -553 -208 -558 -1
-1 -33 -4 -71 -6 -126 -8 -241 -72 -310 -173 l-36 -51 -81 34 c-251 108 -536
264 -797 437 -87 58 -131 88 -249 174 -14 10 276 395 416 552 l48 53 37 -20
c66 -37 133 -51 231 -48 109 3 177 26 252 85 28 22 51 40 53 40 1 1 57 -24
123 -54z m989 -339 c74 -18 290 -63 335 -70 17 -2 50 -8 75 -11 25 -4 52 -9
61 -10 9 -2 40 -6 70 -10 30 -4 55 -8 57 -10 2 -2 6 -18 8 -37 16 -105 69
-208 141 -271 48 -43 134 -96 156 -97 14 0 17 -10 18 -52 5 -225 -6 -498 -26
-638 -1 -11 -21 -16 -81 -20 -145 -9 -552 0 -630 14 -10 2 -50 7 -89 11 -38 4
-77 8 -85 10 -8 1 -42 6 -75 10 -32 3 -62 8 -65 10 -3 2 -26 6 -50 10 -25 4
-48 10 -53 14 -4 4 -9 39 -12 78 -5 87 -45 182 -104 246 -23 24 -41 47 -41 51
0 4 11 35 24 69 65 169 195 523 261 715 3 7 13 11 22 8 10 -2 47 -11 83 -20z
m-2566 -232 c44 -37 87 -72 94 -79 11 -10 4 -29 -38 -104 -29 -50 -56 -91 -60
-91 -4 0 -10 10 -13 23 -2 12 -16 65 -30 117 -15 52 -29 111 -32 130 -3 19 -8
43 -11 53 -3 9 -2 17 1 17 4 0 44 -30 89 -66z m4329 46 c154 -1 167 -3 167
-19 0 -34 -61 -261 -96 -359 -49 -136 -160 -358 -239 -479 -37 -57 -71 -104
-76 -104 -5 -1 -12 -2 -16 -3 -5 -1 -33 -6 -63 -10 -30 -4 -62 -9 -70 -11 -15
-3 -66 -10 -145 -21 -22 -3 -53 -8 -68 -10 l-28 -6 7 109 c11 170 12 187 13
380 l1 181 49 17 c57 19 133 65 179 108 40 38 95 127 112 182 16 49 21 53 68
49 20 -2 112 -3 205 -4z m-3950 -338 c339 -243 744 -467 1103 -612 14 -5 24
-21 28 -45 12 -61 56 -144 109 -201 44 -49 48 -56 39 -81 -6 -16 -50 -131 -99
-258 -49 -126 -92 -237 -95 -247 -6 -14 -13 -14 -75 8 -187 66 -503 249 -664
384 -59 49 -247 234 -295 290 -97 113 -205 273 -277 409 l-45 84 22 41 c95
174 159 286 163 286 3 0 42 -26 86 -58z m1907 -851 c19 -5 53 -12 75 -15 22
-3 49 -7 60 -10 18 -3 66 -11 145 -21 14 -2 54 -7 90 -10 36 -4 78 -9 94 -11
90 -10 306 -18 479 -17 179 2 197 0 197 -15 0 -14 -25 -165 -47 -290 -6 -32
-13 -37 -157 -107 -237 -116 -469 -185 -743 -222 -77 -10 -439 -10 -533 0 -72
8 -217 33 -251 43 -18 5 -23 -11 136 399 l55 140 55 3 c94 4 198 52 262 119
25 26 33 27 83 14z m1515 -99 c-77 -72 -148 -132 -157 -132 -4 0 -5 8 -4 18 2
9 7 37 11 62 11 69 14 82 18 86 2 2 30 7 63 10 32 4 60 7 62 9 1 1 17 2 35 3
l32 1 -60 -57z"/>
</g>
</svg>
